# xmcd
#
# Track frame offsets:
#       150
#       13785
#       35627
#       58037
#       82735
#       101169
#       125408
#       146007
#       177207
#       196812
#       228303
#       251635
#
# Disc length: 3727 seconds
#
# Revision: 2
# Processed by: cddbd v1.5.1PL0 Copyright (c) Steve Scherf et al.
# Submitted via: MusiCat 1.1
#
DISCID=9e0e8d0c
DTITLE=Various Artist - Classic Rock Collection Vol 9 - Classic Blues
DYEAR=1900
DGENRE=
TTITLE0=Bb King - Bb King
TTITLE1=John Mayall - John Mayall
TTITLE2=Cray-collins-copeland - Cray-collins-copeland
TTITLE3=Jimi Hendrix - Jimi Hendrix
TTITLE4=Loonie Brooks - Loonie Brooks
TTITLE5=Jimmy Witherspoon - Jimmy Witherspoon
TTITLE6=Johnny Winter - Johnny Winter
TTITLE7=The Red Devils - the Red Devils
TTITLE8=Sherman Robertson - Sherman Robertson
TTITLE9=Jay Ownes - Jay Ownes
TTITLE10=Saffire - Saffire
TTITLE11=Zakiya Hooker - Zakiya Hooker
EXTD=\n\n
EXTT0=
EXTT1=
EXTT2=
EXTT3=
EXTT4=
EXTT5=
EXTT6=
EXTT7=
EXTT8=
EXTT9=
EXTT10=
EXTT11=
PLAYORDER=
